<?xml version="1.0" encoding="UTF-8" standalone="no"?>
<!-- Generator: Adobe Illustrator 18.1.0, SVG Export Plug-In . SVG Version: 6.00 Build 0)  -->

<svg
   xmlns:dc="http://purl.org/dc/elements/1.1/"
   xmlns:cc="http://creativecommons.org/ns#"
   xmlns:rdf="http://www.w3.org/1999/02/22-rdf-syntax-ns#"
   xmlns:svg="http://www.w3.org/2000/svg"
   xmlns="http://www.w3.org/2000/svg"
   xmlns:sodipodi="http://sodipodi.sourceforge.net/DTD/sodipodi-0.dtd"
   xmlns:inkscape="http://www.inkscape.org/namespaces/inkscape"
   version="1.1"
   id="Слой_1"
   x="0px"
   y="0px"
   viewBox="0 0 809.4 128.80001"
   enable-background="new 0 0 841.9 595.3"
   xml:space="preserve"
   sodipodi:docname="logo-orange.svg"
   inkscape:version="0.92.3 (2405546, 2018-03-11)"
   width="809.40002"
   height="128.8"><metadata
   id="metadata59"><rdf:RDF><cc:Work
       rdf:about=""><dc:format>image/svg+xml</dc:format><dc:type
         rdf:resource="http://purl.org/dc/dcmitype/StillImage" /><dc:title></dc:title></cc:Work></rdf:RDF></metadata><defs
   id="defs57" /><sodipodi:namedview
   pagecolor="#ffffff"
   bordercolor="#666666"
   borderopacity="1"
   objecttolerance="10"
   gridtolerance="10"
   guidetolerance="10"
   inkscape:pageopacity="0"
   inkscape:pageshadow="2"
   inkscape:window-width="1920"
   inkscape:window-height="1056"
   id="namedview55"
   showgrid="false"
   inkscape:zoom="0.39315832"
   inkscape:cx="-223.96904"
   inkscape:cy="3.4058981"
   inkscape:window-x="0"
   inkscape:window-y="0"
   inkscape:window-maximized="1"
   inkscape:current-layer="g52" />
<g
   id="g52"
   transform="translate(-22.1,-233.3)">
	<path
   d="M 133.9,233.3 H 39 c -9.3,0 -16.9,7.6 -16.9,16.9 v 95 c 0,9.3 7.6,16.9 16.9,16.9 h 95 c 9.3,0 16.9,-7.6 16.9,-16.9 v -95 c -0.1,-9.3 -7.7,-16.9 -17,-16.9 z m -4.9,80 c -5.7,0 -10.5,-4.1 -11.5,-9.6 -3.6,0.1 -7.2,0.2 -10.8,0.3 -1.3,11.3 -10.9,20.1 -22.6,20.1 -7.1,0 -13.4,-3.2 -17.6,-8.3 -3.1,2.8 -6.2,5.5 -9.3,8.3 0.3,1.1 0.5,2.3 0.5,3.5 0,7.1 -5.7,12.8 -12.8,12.8 -7.1,0 -12.8,-5.7 -12.8,-12.8 0,-7.1 5.7,-12.8 12.8,-12.8 3.1,0 5.9,1.1 8.2,2.9 3.5,-2.1 7.1,-4.2 10.6,-6.3 -1.5,-3.1 -2.4,-6.5 -2.4,-10.1 0,-5.1 1.7,-9.8 4.6,-13.6 -2.8,-3.5 -5.5,-6.9 -8.3,-10.4 -0.6,0.3 -1.2,0.4 -1.8,0.5 -4.9,0.9 -9.5,-2.3 -10.4,-7.2 -0.9,-4.9 2.4,-9.5 7.2,-10.4 4.9,-0.9 9.5,2.4 10.4,7.2 0.5,2.6 -0.3,5.2 -1.8,7.1 3,2.9 6.1,5.8 9.2,8.6 3.8,-2.9 8.6,-4.7 13.7,-4.7 5.3,0 10.2,1.8 14.1,4.9 5.6,-5.2 11.1,-10.5 16.7,-15.7 -0.8,-1 -1.4,-2.2 -1.6,-3.6 -0.8,-4.4 2.1,-8.5 6.5,-9.3 4.3,-0.8 8.5,2.1 9.3,6.5 0.8,4.3 -2.1,8.5 -6.5,9.3 -2.1,0.4 -4.1,-0.1 -5.8,-1.2 -5.1,5.8 -10.1,11.5 -15.2,17.3 2.7,3.3 4.5,7.3 5.1,11.8 3.6,0.1 7.2,0.3 10.9,0.5 1.1,-5.3 5.8,-9.3 11.5,-9.3 6.5,0 11.7,5.2 11.7,11.7 -0.1,6.7 -5.3,12 -11.8,12 z"
   id="path2"
   inkscape:connector-curvature="0"
   style="fill:#ff7f00" />
	<path
   d="m 223.4,333.9 c -15.9,1.4 -29.1,2.1 -39.6,2.1 -7,0 -12.1,-1.6 -15.4,-4.9 -3.3,-3.3 -4.9,-8.4 -4.9,-15.4 v -34.3 c 0,-7.5 1.7,-12.9 5.1,-16.3 3.4,-3.4 8.8,-5.1 16.3,-5.1 h 38.5 v 15 h -34.3 c -4.3,0 -6.4,2.2 -6.4,6.4 v 34.3 c 0,1.6 0.5,2.9 1.4,3.9 1,1 2.2,1.5 3.7,1.5 1.5,0 3.1,0 4.9,-0.1 1.8,0 3.6,-0.1 5.6,-0.2 1.9,-0.1 3.9,-0.1 5.8,-0.2 2,-0.1 4.5,-0.2 7.6,-0.4 3.1,-0.2 7,-0.5 11.6,-0.7 z"
   id="path4"
   style="fill:#ff7f00;fill-opacity:1"
   inkscape:connector-curvature="0" />
	<path
   d="m 223.4,333.9 c -15.9,1.4 -29.1,2.1 -39.6,2.1 -7,0 -12.1,-1.6 -15.4,-4.9 -3.3,-3.3 -4.9,-8.4 -4.9,-15.4 v -34.3 c 0,-7.5 1.7,-12.9 5.1,-16.3 3.4,-3.4 8.8,-5.1 16.3,-5.1 h 38.5 v 15 h -34.3 c -4.3,0 -6.4,2.2 -6.4,6.4 v 34.3 c 0,1.6 0.5,2.9 1.4,3.9 1,1 2.2,1.5 3.7,1.5 1.5,0 3.1,0 4.9,-0.1 1.8,0 3.6,-0.1 5.6,-0.2 1.9,-0.1 3.9,-0.1 5.8,-0.2 2,-0.1 4.5,-0.2 7.6,-0.4 3.1,-0.2 7,-0.5 11.6,-0.7 z"
   id="path6"
   style="fill:#ff7f00;fill-opacity:1"
   inkscape:connector-curvature="0" />
	<path
   d="m 288.7,319.1 c 0,5.4 -1.5,9.5 -4.6,12.6 -3,3 -7.2,4.6 -12.6,4.6 H 247 c -5.4,0 -9.5,-1.5 -12.6,-4.6 -3,-3 -4.6,-7.2 -4.6,-12.6 v -24.6 c 0,-5.3 1.5,-9.5 4.6,-12.6 3,-3 7.2,-4.6 12.6,-4.6 h 24.6 c 5.4,0 9.5,1.5 12.6,4.6 3,3 4.6,7.2 4.6,12.6 v 24.6 z M 270,296 c 0,-2.9 -1.4,-4.3 -4.3,-4.3 h -12.8 c -2.9,0 -4.3,1.4 -4.3,4.3 v 21.4 c 0,2.9 1.4,4.3 4.3,4.3 h 12.8 c 2.9,0 4.3,-1.4 4.3,-4.3 z"
   id="path8"
   style="fill:#ff7f00;fill-opacity:1"
   inkscape:connector-curvature="0" />
	<path
   d="m 288.7,319.1 c 0,5.4 -1.5,9.5 -4.6,12.6 -3,3 -7.2,4.6 -12.6,4.6 H 247 c -5.4,0 -9.5,-1.5 -12.6,-4.6 -3,-3 -4.6,-7.2 -4.6,-12.6 v -24.6 c 0,-5.3 1.5,-9.5 4.6,-12.6 3,-3 7.2,-4.6 12.6,-4.6 h 24.6 c 5.4,0 9.5,1.5 12.6,4.6 3,3 4.6,7.2 4.6,12.6 v 24.6 z M 270,296 c 0,-2.9 -1.4,-4.3 -4.3,-4.3 h -12.8 c -2.9,0 -4.3,1.4 -4.3,4.3 v 21.4 c 0,2.9 1.4,4.3 4.3,4.3 h 12.8 c 2.9,0 4.3,-1.4 4.3,-4.3 z"
   id="path10"
   style="fill:#ff7f00;fill-opacity:1"
   inkscape:connector-curvature="0" />
	<path
   d="m 327.3,335.1 c -4.8,0.7 -9.3,1.1 -13.6,1.1 -4.3,0 -7.9,-1.5 -10.9,-4.4 -2.9,-2.9 -4.4,-6.8 -4.4,-11.7 v -60 h 18.7 v 57.3 c 0,1.1 0.4,2 1.1,2.7 0.7,0.7 1.6,1.1 2.7,1.1 h 6.4 z"
   id="path12"
   style="fill:#ff7f00;fill-opacity:1"
   inkscape:connector-curvature="0" />
	<path
   d="m 327.3,335.1 c -4.8,0.7 -9.3,1.1 -13.6,1.1 -4.3,0 -7.9,-1.5 -10.9,-4.4 -2.9,-2.9 -4.4,-6.8 -4.4,-11.7 v -60 h 18.7 v 57.3 c 0,1.1 0.4,2 1.1,2.7 0.7,0.7 1.6,1.1 2.7,1.1 h 6.4 z"
   id="path14"
   style="fill:#ff7f00;fill-opacity:1"
   inkscape:connector-curvature="0" />
	<path
   d="m 363.7,335.1 c -4.8,0.7 -9.3,1.1 -13.6,1.1 -4.3,0 -7.9,-1.5 -10.9,-4.4 -2.9,-2.9 -4.4,-6.8 -4.4,-11.7 v -60 h 18.7 v 57.3 c 0,1.1 0.4,2 1.1,2.7 0.7,0.7 1.6,1.1 2.7,1.1 h 6.4 z"
   id="path16"
   style="fill:#ff7f00;fill-opacity:1"
   inkscape:connector-curvature="0" />
	<path
   d="m 363.7,335.1 c -4.8,0.7 -9.3,1.1 -13.6,1.1 -4.3,0 -7.9,-1.5 -10.9,-4.4 -2.9,-2.9 -4.4,-6.8 -4.4,-11.7 v -60 h 18.7 v 57.3 c 0,1.1 0.4,2 1.1,2.7 0.7,0.7 1.6,1.1 2.7,1.1 h 6.4 z"
   id="path18"
   style="fill:#ff7f00;fill-opacity:1"
   inkscape:connector-curvature="0" />
	<path
   d="m 373.8,279.4 c 13.1,-1.4 24.8,-2.1 35.3,-2.1 4.9,0 8.7,1.5 11.7,4.4 2.9,2.9 4.4,6.8 4.4,11.7 v 41.8 h -16.6 l -1.1,-5.4 c -3.4,2.2 -6.8,3.8 -10.3,4.9 -3.5,1 -6.5,1.6 -8.9,1.6 h -3.7 c -4.9,0 -8.7,-1.5 -11.7,-4.4 -2.9,-2.9 -4.4,-6.8 -4.4,-11.7 v -4.8 c 0,-4.8 1.5,-8.7 4.4,-11.7 2.9,-2.9 6.8,-4.4 11.7,-4.4 h 21.9 V 295 c 0,-1.1 -0.4,-2 -1.1,-2.7 -0.7,-0.7 -1.6,-1.1 -2.7,-1.1 -4.6,0 -9.8,0.2 -15.4,0.6 -5.6,0.4 -10.1,0.7 -13.5,1 z m 19.8,41.8 c 3.8,0 8.1,-0.7 12.8,-2.1 v -6.5 H 391 c -1.1,0 -2,0.4 -2.7,1.1 -0.7,0.7 -1.1,1.6 -1.1,2.7 v 1.1 c 0,1.1 0.4,2 1.1,2.7 0.7,0.7 1.6,1.1 2.7,1.1 h 2.6 z"
   id="path20"
   style="fill:#ff7f00;fill-opacity:1"
   inkscape:connector-curvature="0" />
	<path
   d="m 373.8,279.4 c 13.1,-1.4 24.8,-2.1 35.3,-2.1 4.9,0 8.7,1.5 11.7,4.4 2.9,2.9 4.4,6.8 4.4,11.7 v 41.8 h -16.6 l -1.1,-5.4 c -3.4,2.2 -6.8,3.8 -10.3,4.9 -3.5,1 -6.5,1.6 -8.9,1.6 h -3.7 c -4.9,0 -8.7,-1.5 -11.7,-4.4 -2.9,-2.9 -4.4,-6.8 -4.4,-11.7 v -4.8 c 0,-4.8 1.5,-8.7 4.4,-11.7 2.9,-2.9 6.8,-4.4 11.7,-4.4 h 21.9 V 295 c 0,-1.1 -0.4,-2 -1.1,-2.7 -0.7,-0.7 -1.6,-1.1 -2.7,-1.1 -4.6,0 -9.8,0.2 -15.4,0.6 -5.6,0.4 -10.1,0.7 -13.5,1 z m 19.8,41.8 c 3.8,0 8.1,-0.7 12.8,-2.1 v -6.5 H 391 c -1.1,0 -2,0.4 -2.7,1.1 -0.7,0.7 -1.1,1.6 -1.1,2.7 v 1.1 c 0,1.1 0.4,2 1.1,2.7 0.7,0.7 1.6,1.1 2.7,1.1 h 2.6 z"
   id="path22"
   style="fill:#ff7f00;fill-opacity:1"
   inkscape:connector-curvature="0" />
	<path
   d="m 453.6,279.4 c 6.9,-1.4 13,-2.1 18.2,-2.1 h 3.7 c 4.9,0 8.7,1.5 11.7,4.4 2.9,2.9 4.4,6.8 4.4,11.7 V 318 c 0,5.4 -1.5,9.6 -4.6,12.6 -3,3 -7.2,4.5 -12.6,4.5 h -39.6 v -74.9 h 18.7 z m 19.2,16.1 c 0,-1.1 -0.4,-2 -1.1,-2.7 -0.7,-0.7 -1.6,-1.1 -2.7,-1.1 h -2.7 c -3,0 -5.6,0.2 -7.8,0.4 -2.2,0.3 -3.9,0.5 -5.1,0.7 v 27.8 h 15 c 2.9,0 4.3,-1.4 4.3,-4.3 v -20.8 z"
   id="path24"
   style="fill:#ff7f00;fill-opacity:1"
   inkscape:connector-curvature="0" />
	<path
   d="m 453.6,279.4 c 6.9,-1.4 13,-2.1 18.2,-2.1 h 3.7 c 4.9,0 8.7,1.5 11.7,4.4 2.9,2.9 4.4,6.8 4.4,11.7 V 318 c 0,5.4 -1.5,9.6 -4.6,12.6 -3,3 -7.2,4.5 -12.6,4.5 h -39.6 v -74.9 h 18.7 z m 19.2,16.1 c 0,-1.1 -0.4,-2 -1.1,-2.7 -0.7,-0.7 -1.6,-1.1 -2.7,-1.1 h -2.7 c -3,0 -5.6,0.2 -7.8,0.4 -2.2,0.3 -3.9,0.5 -5.1,0.7 v 27.8 h 15 c 2.9,0 4.3,-1.4 4.3,-4.3 v -20.8 z"
   id="path26"
   style="fill:#ff7f00;fill-opacity:1"
   inkscape:connector-curvature="0" />
	<path
   d="m 559,319.1 c 0,5.4 -1.5,9.5 -4.5,12.6 -3,3 -7.2,4.6 -12.6,4.6 h -24.6 c -5.4,0 -9.5,-1.5 -12.6,-4.6 -3,-3 -4.6,-7.2 -4.6,-12.6 v -24.6 c 0,-5.3 1.5,-9.5 4.6,-12.6 3,-3 7.2,-4.6 12.6,-4.6 h 24.6 c 5.3,0 9.5,1.5 12.6,4.6 3,3 4.5,7.2 4.5,12.6 z M 540.3,296 c 0,-2.9 -1.4,-4.3 -4.3,-4.3 h -12.9 c -2.9,0 -4.3,1.4 -4.3,4.3 v 21.4 c 0,2.9 1.4,4.3 4.3,4.3 H 536 c 2.8,0 4.3,-1.4 4.3,-4.3 z"
   id="path28"
   style="fill:#ff7f00;fill-opacity:1"
   inkscape:connector-curvature="0" />
	<path
   d="m 559,319.1 c 0,5.4 -1.5,9.5 -4.5,12.6 -3,3 -7.2,4.6 -12.6,4.6 h -24.6 c -5.4,0 -9.5,-1.5 -12.6,-4.6 -3,-3 -4.6,-7.2 -4.6,-12.6 v -24.6 c 0,-5.3 1.5,-9.5 4.6,-12.6 3,-3 7.2,-4.6 12.6,-4.6 h 24.6 c 5.3,0 9.5,1.5 12.6,4.6 3,3 4.5,7.2 4.5,12.6 z M 540.3,296 c 0,-2.9 -1.4,-4.3 -4.3,-4.3 h -12.9 c -2.9,0 -4.3,1.4 -4.3,4.3 v 21.4 c 0,2.9 1.4,4.3 4.3,4.3 H 536 c 2.8,0 4.3,-1.4 4.3,-4.3 z"
   id="path30"
   style="fill:#ff7f00;fill-opacity:1"
   inkscape:connector-curvature="0" />
	<path
   d="m 601.3,293.9 c -4.5,0 -9.1,1.1 -13.9,3.2 v 38 h -18.7 v -56.7 h 16.6 l 1.1,7 c 6.1,-5.4 12.6,-8 19.3,-8 h 4.8 V 294 h -9.2 z"
   id="path32"
   style="fill:#ff7f00;fill-opacity:1"
   inkscape:connector-curvature="0" />
	<path
   d="m 601.3,293.9 c -4.5,0 -9.1,1.1 -13.9,3.2 v 38 h -18.7 v -56.7 h 16.6 l 1.1,7 c 6.1,-5.4 12.6,-8 19.3,-8 h 4.8 V 294 h -9.2 z"
   id="path34"
   style="fill:#ff7f00;fill-opacity:1"
   inkscape:connector-curvature="0" />
	<path
   d="m 616.3,279.4 c 13.1,-1.4 24.8,-2.1 35.3,-2.1 4.9,0 8.7,1.5 11.7,4.4 2.9,2.9 4.4,6.8 4.4,11.7 v 41.8 h -16.6 l -1.1,-5.4 c -3.4,2.2 -6.8,3.8 -10.3,4.9 -3.5,1 -6.5,1.6 -8.9,1.6 H 627 c -4.9,0 -8.7,-1.5 -11.7,-4.4 -2.9,-2.9 -4.4,-6.8 -4.4,-11.7 v -4.8 c 0,-4.8 1.5,-8.7 4.4,-11.7 2.9,-2.9 6.8,-4.4 11.7,-4.4 h 21.9 V 295 c 0,-1.1 -0.4,-2 -1.1,-2.7 -0.7,-0.7 -1.6,-1.1 -2.7,-1.1 -4.6,0 -9.8,0.2 -15.4,0.6 -5.6,0.4 -10.1,0.7 -13.5,1 z m 19.8,41.8 c 3.8,0 8.1,-0.7 12.8,-2.1 v -6.5 h -15.5 c -1.1,0 -2,0.4 -2.7,1.1 -0.7,0.7 -1.1,1.6 -1.1,2.7 v 1.1 c 0,1.1 0.4,2 1.1,2.7 0.7,0.7 1.6,1.1 2.7,1.1 h 2.7 z"
   id="path36"
   style="fill:#ff7f00;fill-opacity:1"
   inkscape:connector-curvature="0" />
	<path
   d="m 616.3,279.4 c 13.1,-1.4 24.8,-2.1 35.3,-2.1 4.9,0 8.7,1.5 11.7,4.4 2.9,2.9 4.4,6.8 4.4,11.7 v 41.8 h -16.6 l -1.1,-5.4 c -3.4,2.2 -6.8,3.8 -10.3,4.9 -3.5,1 -6.5,1.6 -8.9,1.6 H 627 c -4.9,0 -8.7,-1.5 -11.7,-4.4 -2.9,-2.9 -4.4,-6.8 -4.4,-11.7 v -4.8 c 0,-4.8 1.5,-8.7 4.4,-11.7 2.9,-2.9 6.8,-4.4 11.7,-4.4 h 21.9 V 295 c 0,-1.1 -0.4,-2 -1.1,-2.7 -0.7,-0.7 -1.6,-1.1 -2.7,-1.1 -4.6,0 -9.8,0.2 -15.4,0.6 -5.6,0.4 -10.1,0.7 -13.5,1 z m 19.8,41.8 c 3.8,0 8.1,-0.7 12.8,-2.1 v -6.5 h -15.5 c -1.1,0 -2,0.4 -2.7,1.1 -0.7,0.7 -1.1,1.6 -1.1,2.7 v 1.1 c 0,1.1 0.4,2 1.1,2.7 0.7,0.7 1.6,1.1 2.7,1.1 h 2.7 z"
   id="path38"
   style="fill:#ff7f00;fill-opacity:1"
   inkscape:connector-curvature="0" />
	<path
   d="m 716.9,335.1 c -6.9,0.7 -13.7,1.1 -20.3,1.1 -4.9,0 -8.7,-1.5 -11.7,-4.4 -2.9,-2.9 -4.4,-6.8 -4.4,-11.7 v -27.3 h -6.4 v -14.4 h 6.4 l 2.1,-12.9 h 16.6 v 12.9 h 13.4 v 14.5 h -13.4 v 24.6 c 0,1.1 0.4,2 1.1,2.7 0.7,0.7 1.6,1.1 2.7,1.1 h 13.9 z"
   id="path40"
   style="fill:#ff7f00;fill-opacity:1"
   inkscape:connector-curvature="0" />
	<path
   d="m 716.9,335.1 c -6.9,0.7 -13.7,1.1 -20.3,1.1 -4.9,0 -8.7,-1.5 -11.7,-4.4 -2.9,-2.9 -4.4,-6.8 -4.4,-11.7 v -27.3 h -6.4 v -14.4 h 6.4 l 2.1,-12.9 h 16.6 v 12.9 h 13.4 v 14.5 h -13.4 v 24.6 c 0,1.1 0.4,2 1.1,2.7 0.7,0.7 1.6,1.1 2.7,1.1 h 13.9 z"
   id="path42"
   style="fill:#ff7f00;fill-opacity:1"
   inkscape:connector-curvature="0" />
	<path
   d="m 780.1,319.1 c 0,5.4 -1.5,9.5 -4.5,12.6 -3,3 -7.2,4.6 -12.6,4.6 h -24.6 c -5.4,0 -9.6,-1.5 -12.6,-4.6 -3,-3 -4.6,-7.2 -4.6,-12.6 v -24.6 c 0,-5.3 1.5,-9.5 4.6,-12.6 3,-3 7.2,-4.6 12.6,-4.6 H 763 c 5.4,0 9.5,1.5 12.6,4.6 3,3 4.5,7.2 4.5,12.6 z M 761.3,296 c 0,-2.9 -1.4,-4.3 -4.3,-4.3 h -12.8 c -2.9,0 -4.3,1.4 -4.3,4.3 v 21.4 c 0,2.9 1.4,4.3 4.3,4.3 H 757 c 2.9,0 4.3,-1.4 4.3,-4.3 z"
   id="path44"
   style="fill:#ff7f00;fill-opacity:1"
   inkscape:connector-curvature="0" />
	<path
   d="m 780.1,319.1 c 0,5.4 -1.5,9.5 -4.5,12.6 -3,3 -7.2,4.6 -12.6,4.6 h -24.6 c -5.4,0 -9.6,-1.5 -12.6,-4.6 -3,-3 -4.6,-7.2 -4.6,-12.6 v -24.6 c 0,-5.3 1.5,-9.5 4.6,-12.6 3,-3 7.2,-4.6 12.6,-4.6 H 763 c 5.4,0 9.5,1.5 12.6,4.6 3,3 4.5,7.2 4.5,12.6 z M 761.3,296 c 0,-2.9 -1.4,-4.3 -4.3,-4.3 h -12.8 c -2.9,0 -4.3,1.4 -4.3,4.3 v 21.4 c 0,2.9 1.4,4.3 4.3,4.3 H 757 c 2.9,0 4.3,-1.4 4.3,-4.3 z"
   id="path46"
   style="fill:#ff7f00;fill-opacity:1"
   inkscape:connector-curvature="0" />
	<path
   d="m 822.3,293.9 c -4.5,0 -9.1,1.1 -13.9,3.2 v 38 h -18.7 v -56.7 h 16.6 l 1.1,7 c 6.1,-5.4 12.6,-8 19.3,-8 h 4.8 V 294 h -9.2 z"
   id="path48"
   style="fill:#ff7f00;fill-opacity:1"
   inkscape:connector-curvature="0" />
	<path
   d="m 822.3,293.9 c -4.5,0 -9.1,1.1 -13.9,3.2 v 38 h -18.7 v -56.7 h 16.6 l 1.1,7 c 6.1,-5.4 12.6,-8 19.3,-8 h 4.8 V 294 h -9.2 z"
   id="path50"
   style="fill:#ff7f00;fill-opacity:1"
   inkscape:connector-curvature="0" />
</g>
</svg>